<mxfile host="app.diagrams.net" modified="2022-09-20T06:05:29.938Z" agent="5.0 (Windows NT 10.0; Win64; x64) AppleWebKit/537.36 (KHTML, like Gecko) Chrome/105.0.0.0 Safari/537.36" etag="uI7KFf6t4glM3vpnL_ey" version="20.3.3" type="github">
  <diagram id="C5RBs43oDa-KdzZeNtuy" name="Page-1">
    <mxGraphModel dx="1128" dy="597" grid="1" gridSize="10" guides="1" tooltips="1" connect="1" arrows="1" fold="1" page="1" pageScale="1" pageWidth="3300" pageHeight="4681" math="0" shadow="0">
      <root>
        <mxCell id="WIyWlLk6GJQsqaUBKTNV-0" />
        <mxCell id="WIyWlLk6GJQsqaUBKTNV-1" parent="WIyWlLk6GJQsqaUBKTNV-0" />
        <mxCell id="-IVFi22rQ0tpU4x_jMvX-2" value="" style="edgeStyle=orthogonalEdgeStyle;rounded=0;orthogonalLoop=1;jettySize=auto;html=1;" edge="1" parent="WIyWlLk6GJQsqaUBKTNV-1" source="-IVFi22rQ0tpU4x_jMvX-0" target="-IVFi22rQ0tpU4x_jMvX-4">
          <mxGeometry relative="1" as="geometry">
            <mxPoint x="400" y="210" as="targetPoint" />
          </mxGeometry>
        </mxCell>
        <mxCell id="-IVFi22rQ0tpU4x_jMvX-0" value="开始" style="rounded=1;whiteSpace=wrap;html=1;" vertex="1" parent="WIyWlLk6GJQsqaUBKTNV-1">
          <mxGeometry x="350" y="160" width="100" height="30" as="geometry" />
        </mxCell>
        <mxCell id="-IVFi22rQ0tpU4x_jMvX-5" style="edgeStyle=orthogonalEdgeStyle;rounded=0;orthogonalLoop=1;jettySize=auto;html=1;" edge="1" parent="WIyWlLk6GJQsqaUBKTNV-1" source="-IVFi22rQ0tpU4x_jMvX-4" target="-IVFi22rQ0tpU4x_jMvX-6">
          <mxGeometry relative="1" as="geometry">
            <mxPoint x="550" y="274.9999999999999" as="targetPoint" />
          </mxGeometry>
        </mxCell>
        <mxCell id="-IVFi22rQ0tpU4x_jMvX-13" style="edgeStyle=orthogonalEdgeStyle;rounded=0;orthogonalLoop=1;jettySize=auto;html=1;" edge="1" parent="WIyWlLk6GJQsqaUBKTNV-1" source="-IVFi22rQ0tpU4x_jMvX-4" target="-IVFi22rQ0tpU4x_jMvX-15">
          <mxGeometry relative="1" as="geometry">
            <mxPoint x="400" y="359.9999999999999" as="targetPoint" />
          </mxGeometry>
        </mxCell>
        <mxCell id="-IVFi22rQ0tpU4x_jMvX-4" value="付款单是否存在" style="html=1;whiteSpace=wrap;aspect=fixed;shape=isoRectangle;" vertex="1" parent="WIyWlLk6GJQsqaUBKTNV-1">
          <mxGeometry x="325" y="230" width="150" height="90" as="geometry" />
        </mxCell>
        <mxCell id="-IVFi22rQ0tpU4x_jMvX-7" style="edgeStyle=orthogonalEdgeStyle;rounded=0;orthogonalLoop=1;jettySize=auto;html=1;entryX=0;entryY=0.5;entryDx=0;entryDy=0;" edge="1" parent="WIyWlLk6GJQsqaUBKTNV-1" source="-IVFi22rQ0tpU4x_jMvX-6" target="-IVFi22rQ0tpU4x_jMvX-8">
          <mxGeometry relative="1" as="geometry">
            <mxPoint x="700" y="274.9999999999999" as="targetPoint" />
          </mxGeometry>
        </mxCell>
        <mxCell id="-IVFi22rQ0tpU4x_jMvX-6" value="返回付款单不存在" style="rounded=0;whiteSpace=wrap;html=1;" vertex="1" parent="WIyWlLk6GJQsqaUBKTNV-1">
          <mxGeometry x="530" y="258.75" width="120" height="32.5" as="geometry" />
        </mxCell>
        <mxCell id="-IVFi22rQ0tpU4x_jMvX-8" value="结束" style="rounded=1;whiteSpace=wrap;html=1;" vertex="1" parent="WIyWlLk6GJQsqaUBKTNV-1">
          <mxGeometry x="710" y="257.5" width="120" height="35" as="geometry" />
        </mxCell>
        <mxCell id="-IVFi22rQ0tpU4x_jMvX-17" style="edgeStyle=orthogonalEdgeStyle;rounded=0;orthogonalLoop=1;jettySize=auto;html=1;" edge="1" parent="WIyWlLk6GJQsqaUBKTNV-1" source="-IVFi22rQ0tpU4x_jMvX-15">
          <mxGeometry relative="1" as="geometry">
            <mxPoint x="560" y="405" as="targetPoint" />
            <Array as="points">
              <mxPoint x="520" y="405" />
              <mxPoint x="520" y="405" />
            </Array>
          </mxGeometry>
        </mxCell>
        <mxCell id="-IVFi22rQ0tpU4x_jMvX-19" style="edgeStyle=orthogonalEdgeStyle;rounded=0;orthogonalLoop=1;jettySize=auto;html=1;" edge="1" parent="WIyWlLk6GJQsqaUBKTNV-1" source="-IVFi22rQ0tpU4x_jMvX-15">
          <mxGeometry relative="1" as="geometry">
            <mxPoint x="400" y="500" as="targetPoint" />
          </mxGeometry>
        </mxCell>
        <mxCell id="-IVFi22rQ0tpU4x_jMvX-21" style="edgeStyle=orthogonalEdgeStyle;rounded=0;orthogonalLoop=1;jettySize=auto;html=1;" edge="1" parent="WIyWlLk6GJQsqaUBKTNV-1" source="-IVFi22rQ0tpU4x_jMvX-15">
          <mxGeometry relative="1" as="geometry">
            <mxPoint x="280" y="500" as="targetPoint" />
          </mxGeometry>
        </mxCell>
        <mxCell id="-IVFi22rQ0tpU4x_jMvX-15" value="付款单状态判断" style="html=1;whiteSpace=wrap;aspect=fixed;shape=isoRectangle;" vertex="1" parent="WIyWlLk6GJQsqaUBKTNV-1">
          <mxGeometry x="325" y="360" width="150" height="90" as="geometry" />
        </mxCell>
        <mxCell id="-IVFi22rQ0tpU4x_jMvX-18" value="F" style="text;html=1;align=center;verticalAlign=middle;resizable=0;points=[];autosize=1;strokeColor=none;fillColor=none;" vertex="1" parent="WIyWlLk6GJQsqaUBKTNV-1">
          <mxGeometry x="505" y="375" width="30" height="30" as="geometry" />
        </mxCell>
        <mxCell id="-IVFi22rQ0tpU4x_jMvX-20" value="T" style="text;html=1;align=center;verticalAlign=middle;resizable=0;points=[];autosize=1;strokeColor=none;fillColor=none;" vertex="1" parent="WIyWlLk6GJQsqaUBKTNV-1">
          <mxGeometry x="395" y="455" width="30" height="30" as="geometry" />
        </mxCell>
        <mxCell id="-IVFi22rQ0tpU4x_jMvX-22" value="D" style="text;html=1;align=center;verticalAlign=middle;resizable=0;points=[];autosize=1;strokeColor=none;fillColor=none;" vertex="1" parent="WIyWlLk6GJQsqaUBKTNV-1">
          <mxGeometry x="275" y="450" width="30" height="30" as="geometry" />
        </mxCell>
      </root>
    </mxGraphModel>
  </diagram>
</mxfile>
